<?xml version="1.0" encoding="UTF-8" standalone="no"?>
<svg
   width="1350.88"
   height="430"
   viewBox="0 0 1350.88 430"
   fill="none"
   version="1.1"
   id="svg74"
   sodipodi:docname="agedb.svg"
   inkscape:version="1.1.2 (0a00cf5339, 2022-02-04)"
   xmlns:inkscape="http://www.inkscape.org/namespaces/inkscape"
   xmlns:sodipodi="http://sodipodi.sourceforge.net/DTD/sodipodi-0.dtd"
   xmlns="http://www.w3.org/2000/svg"
   xmlns:svg="http://www.w3.org/2000/svg">
  <sodipodi:namedview
     id="namedview76"
     pagecolor="#505050"
     bordercolor="#eeeeee"
     borderopacity="1"
     inkscape:pageshadow="0"
     inkscape:pageopacity="0"
     inkscape:pagecheckerboard="0"
     showgrid="false"
     fit-margin-top="0"
     fit-margin-left="0"
     fit-margin-right="0"
     fit-margin-bottom="0"
     inkscape:zoom="0.90673575"
     inkscape:cx="490.22"
     inkscape:cy="238.21714"
     inkscape:window-width="2560"
     inkscape:window-height="1409"
     inkscape:window-x="0"
     inkscape:window-y="0"
     inkscape:window-maximized="1"
     inkscape:current-layer="g22" />
  <g
     clip-path="url(#clip0_6_2)"
     id="g22">
    <path
       d="M 771.14,258.96 H 608.33 v 44.02 h 162.81 z"
       fill="url(#paint0_linear_6_2)"
       id="path4"
       style="fill:url(#paint0_linear_6_2)" />
    <path
       d="m 570.52,429.94 h -18.19 c 11.81,-6.48 37.52,-29.78 47.68,-41.44 l 2.25,-2.58 h 168.9 v 44.02 H 570.53 Z"
       fill="url(#paint1_linear_6_2)"
       id="path6"
       style="fill:url(#paint1_linear_6_2)" />
    <path
       d="M 602.25,176.4 600,173.82 c -10.16,-11.67 -38.98,-34.96 -50.79,-41.44 h 221.93 v 44.02 h -168.9 z"
       fill="url(#paint2_linear_6_2)"
       id="path8"
       style="fill:url(#paint2_linear_6_2)" />
    <path
       d="m 408.44,387.09 11.99,0.5 c 1.5,0.06 3.01,0.1 4.52,0.1 49.19,0 91.81,-33.93 103.87,-80.75 L 394.36,354.69 377.47,315.84 537.78,258.95 H 574 l 0.7,12.69 c 0.15,2.71 0.23,5.52 0.23,8.34 0,80.16 -62.63,146.02 -142.57,149.94 l -5.19,0.25 -18.73,-43.09 z"
       fill="url(#paint3_linear_6_2)"
       id="path10"
       style="fill:url(#paint3_linear_6_2)" />
    <path
       d="m 510.37,217.34 c -20.5,-27.01 -51.64,-42.5 -85.42,-42.5 -30.97,0 -60.45,13.54 -80.9,37.16 l -7.81,9.03 -18.75,-43.14 3.77,-3.62 c 28.09,-27 64.92,-41.87 103.7,-41.87 44.63,0 86.67,19.72 115.33,54.12 l 5.99,7.3 -23.69,39.71 -12.21,-16.17 z"
       fill="url(#paint4_linear_6_2)"
       id="path12"
       style="fill:url(#paint4_linear_6_2)" />
    <path
       d="M 316.15,299.61 194.16,19.09 185.84,0 177.61,19.09 1.53,426.64 0,430.18 h 68.84 l 221.13,-78.49 33.89,78.49 h 49.08 l -40.66,-93.51 -16.12,-37.06 z m -249.79,88.61 5.91,-13.73 113.57,-263.96 88.1,204.05 z"
       fill="url(#paint5_linear_6_2)"
       id="path14"
       style="fill:url(#paint5_linear_6_2)" />
    <path
       d="m 809.77,429.94 v -45.56 h 122.89 c 38.2,0 67.25,-10.1 86.33,-30.03 19.13,-19.97 28.82,-50.38 28.82,-90.37 V 213 c 0,-40.18 -9.7,-70.73 -28.83,-90.79 C 999.9,102.2 970.86,92.05 932.66,92.05 H 809.77 V 49.6 h 127.08 c 52.82,0 93.6,13.94 121.21,41.43 27.61,27.49 41.62,68.1 41.62,120.69 v 56.09 c 0,53.33 -13.81,94.13 -41.06,121.25 -27.24,27.12 -68.21,40.87 -121.76,40.87 H 809.78 Z"
       fill="url(#paint6_linear_6_2)"
       id="path16"
       style="fill:url(#paint6_linear_6_2)" />
    <path
       d="m 850.16,177.87 h -40.39 v 124.27 h 40.39 z"
       fill="url(#paint7_linear_6_2)"
       id="path18"
       style="fill:url(#paint7_linear_6_2)" />
    <path
       d="m 1310.95,226.69 c 15.85,-16.03 24.2,-37.67 24.2,-62.92 v -9.76 c 0,-26.27 -7.04,-48.15 -20.93,-65.01 -21.51,-26.12 -58.95,-39.37 -111.28,-39.37 H 1074.2 c 15.96,8.83 40.72,28.29 54.4,43.94 l 1.12,1.28 h 73.21 c 3.75,0 7.55,0.09 11.62,0.28 36.79,1.72 74.4,10.06 74.4,58.87 v 9.76 c 0,24.54 -11.96,38.81 -37.64,44.93 l -6.14,1.46 c -3.63,0.86 -7.35,1.3 -11.08,1.3 h -70.66 v 39.61 h 71.24 c 3.36,0 6.71,0.24 10.03,0.72 l 8.71,1.25 c 34.98,5.04 51.27,22.29 51.27,54.29 v 11.62 c 0,39.55 -22.56,60.77 -68.97,64.89 -5.74,0.51 -11.8,0.77 -18.01,0.77 h -88.43 l -1.12,1.28 c -13.72,15.59 -39.15,35.33 -55.06,44.06 l 12.22,-0.36 h 143.07 c 43.57,-1.86 77.59,-15.54 98.4,-39.54 15.99,-18.45 24.1,-42.37 24.1,-71.09 v -11.62 c 0,-35.31 -13.78,-63.08 -39.93,-80.64 z"
       fill="url(#paint8_linear_6_2)"
       id="path20"
       style="fill:url(#paint8_linear_6_2)" />
  </g>
  <defs
     id="defs72">
    <linearGradient
       id="paint0_linear_6_2"
       x1="-43.990002"
       y1="280.97"
       x2="1346.35"
       y2="280.97"
       gradientUnits="userSpaceOnUse">
      <stop
         stop-color="#31457F"
         id="stop24" />
      <stop
         offset="1"
         stop-color="#C42B5B"
         id="stop26" />
    </linearGradient>
    <linearGradient
       id="paint1_linear_6_2"
       x1="-67.249901"
       y1="407.92999"
       x2="1362.76"
       y2="407.92999"
       gradientUnits="userSpaceOnUse">
      <stop
         stop-color="#31457F"
         id="stop29" />
      <stop
         offset="1"
         stop-color="#C42B5B"
         id="stop31" />
    </linearGradient>
    <linearGradient
       id="paint2_linear_6_2"
       x1="-79.150002"
       y1="154.39"
       x2="1371.16"
       y2="154.39"
       gradientUnits="userSpaceOnUse">
      <stop
         stop-color="#31457F"
         id="stop34" />
      <stop
         offset="1"
         stop-color="#C42B5B"
         id="stop36" />
    </linearGradient>
    <linearGradient
       id="paint3_linear_6_2"
       x1="-35.369999"
       y1="344.57001"
       x2="1350.24"
       y2="344.57001"
       gradientUnits="userSpaceOnUse">
      <stop
         stop-color="#31457F"
         id="stop39" />
      <stop
         offset="1"
         stop-color="#C42B5B"
         id="stop41" />
    </linearGradient>
    <linearGradient
       id="paint4_linear_6_2"
       x1="-24.5201"
       y1="182.94"
       x2="1346.11"
       y2="182.94"
       gradientUnits="userSpaceOnUse">
      <stop
         stop-color="#31457F"
         id="stop44" />
      <stop
         offset="1"
         stop-color="#C42B5B"
         id="stop46" />
    </linearGradient>
    <linearGradient
       id="paint5_linear_6_2"
       x1="6.3400002"
       y1="215.09"
       x2="1268.36"
       y2="215.09"
       gradientUnits="userSpaceOnUse">
      <stop
         stop-color="#31457F"
         id="stop49" />
      <stop
         offset="1"
         stop-color="#C42B5B"
         id="stop51" />
    </linearGradient>
    <linearGradient
       id="paint6_linear_6_2"
       x1="-1.04006"
       y1="239.77"
       x2="1294.55"
       y2="239.77"
       gradientUnits="userSpaceOnUse">
      <stop
         stop-color="#31457F"
         id="stop54" />
      <stop
         offset="1"
         stop-color="#C42B5B"
         id="stop56" />
    </linearGradient>
    <linearGradient
       id="paint7_linear_6_2"
       x1="-1740.37"
       y1="240"
       x2="2258.5801"
       y2="240"
       gradientUnits="userSpaceOnUse">
      <stop
         stop-color="#31457F"
         id="stop59" />
      <stop
         offset="1"
         stop-color="#C42B5B"
         id="stop61" />
    </linearGradient>
    <linearGradient
       id="paint8_linear_6_2"
       x1="-5003.9102"
       y1="239.78"
       x2="1872.12"
       y2="239.78"
       gradientUnits="userSpaceOnUse">
      <stop
         stop-color="#31457F"
         id="stop64" />
      <stop
         offset="1"
         stop-color="#C42B5B"
         id="stop66" />
    </linearGradient>
    <clipPath
       id="clip0_6_2">
      <rect
         width="1351"
         height="430"
         fill="#ffffff"
         id="rect69"
         x="0"
         y="0" />
    </clipPath>
  </defs>
</svg>
