<?xml version="1.0" encoding="UTF-8" standalone="no"?>
<!DOCTYPE svg PUBLIC "-//W3C//DTD SVG 1.1//EN" "http://www.w3.org/Graphics/SVG/1.1/DTD/svg11.dtd">
<svg xmlns:dc="http://purl.org/dc/elements/1.1/" xmlns="http://www.w3.org/2000/svg" xmlns:xl="http://www.w3.org/1999/xlink" version="1.1" viewBox="50 257.78566 114.84129 112.71434" width="114.84129" height="112.71434">
  <defs/>
  <g id="版面___20" stroke="none" fill-opacity="1" stroke-opacity="1" stroke-dasharray="none" fill="none">
    <title>版面 20</title>
    <g id="版面___20_ivorysql">
      <title>ivorysql</title>
      <g id="Graphic_16">
        <path d="M 110.94012 257.79045 C 108.56667 257.7572 106.19543 257.94946 103.85834 258.36464 C 92.20691 260.28342 81.1201 266.96326 74.01919 276.27484 C 70.109856 281.52875 68.26285 284.58635 69.042804 284.58635 C 69.25813 284.58635 70.396955 283.94517 71.531 283.09344 C 81.05311 276.3466 98.3269 273.28422 109.83479 276.3466 C 120.84982 279.25588 126.67793 283.8064 131.57775 293.46728 C 135.70241 301.4295 136.55414 304.4823 138.61168 317.63145 L 139.1141 320.40195 L 140.46347 318.6937 C 142.87988 315.56912 145.86093 308.5352 147.06675 303.2765 C 151.11963 285.0122 143.37752 269.80554 125.82142 261.42225 C 120.89289 259.0776 116.02177 257.8718 110.94012 257.78566 Z M 79.37358 285.35195 C 77.90459 285.43808 76.32555 286.6439 74.0144 288.98854 C 71.52621 291.42888 68.966245 293.807 66.33929 296.1038 C 59.44891 301.92713 53.123164 312.2292 50.92207 321.11013 C 48.86453 329.57 50.347874 341.9344 54.400755 349.9636 C 60.58295 362.328 77.07201 370.71127 94.69032 370.49595 C 98.17378 370.49595 98.60443 370.3524 97.39383 369.6442 C 93.41273 367.2278 87.58462 360.7633 85.4553 356.4281 C 83.32598 352.0259 83.18243 351.30816 83.18243 343.92015 C 83.18243 336.74267 83.32598 335.81917 85.17298 332.3405 C 88.44113 326.1583 91.85282 323.24423 98.24556 321.39723 C 105.92067 319.19614 109.75823 315.49735 111.89233 308.31987 C 112.74406 305.54937 113.38046 302.91762 113.38046 302.56354 C 113.38046 301.07062 111.32292 300.2189 105.92067 299.43894 C 95.82914 298.08958 89.79049 294.9602 84.03416 288.4239 C 82.18715 286.2898 80.83779 285.26582 79.37358 285.35195 Z M 85.02943 294.58697 C 85.91944 294.58697 86.98171 294.85493 88.15403 295.38606 C 89.79049 296.09902 90.00582 296.5249 89.57995 298.3719 C 88.29758 304.27178 88.29758 305.90345 89.57995 307.3246 C 91.56572 309.5257 93.4845 309.03283 97.03974 305.62114 C 100.16434 302.49176 101.15961 302.13767 104.9254 302.28122 C 106.34654 302.353 106.98294 302.85064 107.27004 304.05645 C 107.48536 305.05173 108.33709 306.047 109.11704 306.25754 C 110.96883 306.83174 110.89706 307.9658 108.76295 310.94683 C 101.37494 321.04314 86.59412 320.97137 81.4072 310.87984 C 79.06256 306.26233 79.69896 299.5107 82.96711 295.38606 C 83.43125 294.8597 84.13943 294.58697 85.02943 294.58697 Z M 155.37826 303.06117 C 155.02417 303.06117 154.38299 304.69764 153.95712 306.6882 C 151.25839 319.19135 141.80326 333.33576 131.57297 339.94383 C 123.61554 345.13075 120.3474 345.98248 107.6959 346.05425 C 101.65725 346.05425 94.97741 345.76715 92.8481 345.48484 L 89.01054 344.91543 L 89.50818 347.26007 C 90.14458 350.67176 94.62333 356.7152 99.09729 360.4092 C 107.27004 367.08904 114.94515 369.50067 125.46254 368.93604 C 144.15269 367.94077 159.29238 356.63863 163.9051 340.3697 C 164.4793 338.2356 164.90516 333.76163 164.83339 329.35466 C 164.83339 323.17246 164.47452 320.8996 162.91461 316.34907 C 160.99105 310.7363 156.58886 303.06117 155.37826 303.06117 Z" fill="#666"/>
      </g>
    </g>
  </g>
</svg>
