<?xml version="1.0" encoding="UTF-8" standalone="no"?>
<!DOCTYPE svg PUBLIC "-//W3C//DTD SVG 1.1//EN" "http://www.w3.org/Graphics/SVG/1.1/DTD/svg11.dtd">
<svg xmlns:dc="http://purl.org/dc/elements/1.1/" xmlns="http://www.w3.org/2000/svg" xmlns:xl="http://www.w3.org/1999/xlink" version="1.1" viewBox="-.3152179 -.7260584 424.2402 482.2072" width="424.2402" height="482.2072">
  <defs/>
  <g id="版面___20" stroke="none" fill-opacity="1" stroke-opacity="1" stroke-dasharray="none" fill="none">
    <title>版面 20</title>
    <g id="版面___20_ivorysql">
      <title>ivorysql</title>
      <g id="Group_15">
        <title>ivorysql</title>
        <g id="Group_9">
          <g id="Graphic_14">
            <path d="M 208.8 76 C 236.8 52 229.8 37.7 230 34.6 L 230 34.4 C 227 26 236.7 27.4 236.7 27.4 C 250 22.8 246 38.7 244.9 46 C 244.9 46.2 244.8 46.5 244.7 46.7 C 240.3 71.8 196.5 102.4 196.6 102.4 C 164.6 131.3 169 159.1 169 159.1 C 176.9 217.7 255.9 234 255.9 234 C 332 248.5 354.3 289.2 354.3 289.2 C 388.7 345.6 335.4 378.2 329.4 381.6 C 329 381.8 328.6 382.1 328.3 382.4 C 326.2 384.4 325.6 386.3 325.7 388 C 325.9 391.3 328.6 393.9 331.9 394.2 C 335.6 394.4 339.2 392.1 339.9 391.6 C 340 391.5 340.1 391.5 340.2 391.4 C 399.4 357.2 373.8 297.7 373.8 297.7 C 354.9 244.3 282.1 226.5 281.5 226.4 L 266 222 C 175.3 200.6 181.8 149.9 181.8 149.9 C 181.1 137.5 195.2 118.7 208.7 106.7 C 227.5 91.1 237 79.9 237 79.9 C 266 46.5 254.2 13.2 254.1 12.9 C 250.9 -1.7 246 -.7 246 -.7 C 242.1 -1 237.7 1.3 238.1 5.7 L 238.1 7.2 C 237.7 14.6 234.4 16.2 230.3 15.9 C 229.5 15.8 224.1 14.8 223.4 14.7 C 211.9 13.3 212.5 20.7 215.4 26.8 C 215.7 27.4 216.4 29.1 216.7 29.7 C 230.7 51.7 199.5 71.4 192 75.9 C 164.7 91 149.1 110.2 147.2 112.6 C 147.1 112.8 147 112.9 146.8 113.1 C 129.2 140 129.6 160.3 129.6 160.6 C 126.8 197 156.7 281.7 156.7 281.7 C 175.4 341.5 143.1 370.7 140.8 372.8 C 140.7 372.9 140.6 373 140.5 373.1 C 121.1 392.8 90.3 395.9 90.3 395.9 C 80.7 397.1 76.6 393.4 74.9 389 C 73.2 384.6 67.7 383 64.1 386.1 L 63.6 386.5 C 62.6 388.4 61.9 389.9 61 391.7 L 61.1 394 C 59.6 411.2 78 410.1 78 410.1 C 162.4 409.7 173.6 341.9 173.6 341.9 C 182.9 306.6 163.5 256.9 161.7 252.4 C 161.6 252.2 161.5 252 161.5 251.7 C 156.6 234.5 147.2 199.7 147.2 199.7 C 147.2 199.7 129.4 140.1 168.3 105.7 C 168.4 105.6 168.6 105.4 168.7 105.3 C 172.6 101.1 193.4 88 208.8 76 Z" fill="#999"/>
          </g>
          <g id="Graphic_13">
            <path d="M 423.9 300.1 C 423.9 346.4 424 392.8 423.8 439.1 C 423.7 467.8 410.8 481.2 382.1 481.3 C 323.7 481.6 265.3 481.5 206.9 481.2 C 200 481.2 192.7 480.4 186.4 477.9 C 166.2 469.9 162.5 453.8 177.4 437.8 C 192.6 421.5 208.1 405.5 216.1 384.2 C 219.7 374.7 221.3 364.6 220.6 354.3 C 220.3 349.4 221.8 344.4 226.9 344.3 C 232.1 344.2 233.4 349.5 233.6 354.2 C 234.5 373.9 229.1 391.8 218.5 408.2 C 209.9 421.5 199.5 433.5 188.4 444.9 C 178.4 455.3 180.9 463.7 194.9 467.2 C 199.1 468.3 203.7 468.1 208.2 468.1 C 265.3 468.2 322.4 468.2 379.6 468.1 C 404.4 468 410.8 461.4 410.9 436.2 C 411 344.8 411 253.4 410.9 162 C 410.9 137.4 403.9 130.4 379.1 130.3 C 328.3 130.1 277.5 130.3 226.8 130.1 C 221.1 130.1 211.4 131.3 211 124.7 C 210.5 116.1 221 117.5 227.2 117.5 C 278.6 117.2 330 117.2 381.4 117.4 C 411.1 117.5 423.7 130.7 423.8 161 C 424 207.4 423.9 253.7 423.9 300.1 Z" fill="#999"/>
          </g>
          <g id="Graphic_12">
            <path d="M 306.2 299.7 C 305.6 305.1 302.9 309.3 297.1 309.2 C 291.3 309.1 288.4 304.6 288.2 299.3 C 288.1 294.4 291.3 291.2 296.2 290.8 C 302.2 290.4 305.2 294 306.2 299.7 Z" fill="#999"/>
          </g>
          <g id="Graphic_11">
            <path d="M 364.6 385.9 C 364.4 385.6 364.2 385.2 364.1 384.9 C 363.5 383.4 363.1 379.8 367 377.3 C 367 377.3 372.1 373.6 377.4 381.6 C 377.4 381.6 385.1 391.3 386.9 404.2 C 386.9 404.2 392.6 424.9 370.5 448.1 C 370.5 448.1 365.9 452.8 360.9 449.5 C 360.6 449.3 360.3 449.1 360.1 448.9 C 358.9 447.8 355.3 444.5 359.6 440.5 C 359.6 440.5 378.7 425.5 373.4 404.1 C 373.4 403.9 373.3 403.8 373.3 403.6 C 372.8 402.1 370.3 395 364.6 385.9 Z" fill="#999"/>
          </g>
          <g id="Graphic_10">
            <path d="M 72.4 407.4 C 72.4 407.4 60.9 408.9 61 395.2 L 61 137.1 C 61 137.1 60.4 118.8 79.1 117.1 L 116.6 117.1 C 116.6 117.1 125.9 116.4 125.1 124.6 C 125.1 124.6 124.9 131.1 114.9 130.3 L 81.7 130.3 C 81.7 130.3 73.8 128.9 74.5 144 L 74.5 381.2 C 74.5 381.2 73 400.8 87.4 396.5 Z" fill="#999"/>
          </g>
        </g>
        <g id="Group_6">
          <g id="Graphic_8">
            <path d="M 49.3 234.7 C 81.5 249.6 116 255.2 152.7 257.1 C 154.4 257.2 155.9 258.3 156.4 259.9 C 159.1 267.9 163.1 281.6 164.7 290.6 C 165.2 293.5 162.6 296 159.7 295.4 C 114.6 285 66.4 265.7 44.5 241.3 C 41.4 237.8 45.2 232.8 49.3 234.7 Z" fill="#fbaf42"/>
          </g>
          <g id="Graphic_7">
            <path d="M 160.6 299.4 C 160 299.4 159.4 299.3 158.8 299.2 C 105.4 286.9 61.6 266.3 41.5 243.9 C 38.9 241 38.7 236.7 41 233.6 C 43.3 230.5 47.4 229.4 51 231 C 79.3 244 110.7 250.8 152.9 253 C 156.2 253.2 159.1 255.3 160.2 258.5 C 162.6 265.6 166.9 279.9 168.7 289.8 C 169.2 292.5 168.3 295.2 166.3 297.1 C 164.7 298.6 162.7 299.4 160.6 299.4 Z M 47.4 238.4 C 47.4 238.4 47.4 238.5 47.4 238.4 C 69.9 263.5 120.6 282.2 160.6 291.4 C 160.6 291.4 160.7 291.4 160.8 291.4 C 160.9 291.3 160.9 291.3 160.8 291.3 C 159.3 282.9 155.5 269.5 152.6 261.2 L 152.5 261.1 C 109.8 258.9 76.5 251.6 47.7 238.3 C 47.6 238.3 47.6 238.3 47.6 238.3 C 47.5 238.3 47.4 238.4 47.4 238.4 Z" fill="white"/>
          </g>
        </g>
        <g id="Group_3">
          <g id="Graphic_5">
            <path d="M 201 310.6 C 201.2 310.6 201.3 310.5 201.5 310.5 C 204.3 309.6 233.8 300.9 238.9 319.8 C 238.9 319.8 244.3 336 232.2 343.9 C 227.2 347.2 220.6 349.8 210.1 351.9 C 210.1 351.9 91.5 379.2 5.2 298.1 C 1.4 294.6 5.1 288.4 10 290.1 C 46.7 302.3 129.6 325.4 201 310.6 Z" fill="#fbaf42"/>
          </g>
          <g id="Graphic_4">
            <path d="M 162.5 360.3 C 155.4 360.3 147.8 360 139.7 359.4 C 102.2 356.3 47.9 343.7 2.5 301 C -.6 298.1 -1.2 293.7 1 290.1 C 3.2 286.5 7.3 285 11.3 286.3 C 37 294.9 93.7 311.5 151.2 311.5 C 167.7 311.5 184.3 310.1 200.2 306.8 L 200.3 306.8 C 203.8 305.7 221.8 300.6 233.5 307 C 238.1 309.5 241.2 313.5 242.7 318.7 C 244.9 325.4 245.9 339.7 234.3 347.3 C 228.4 351.1 221.2 353.8 210.9 355.9 C 209.4 356.1 190.4 360.3 162.5 360.3 Z M 8.3 293.7 C 8.1 293.7 7.9 293.8 7.7 294.1 C 7.4 294.7 7.7 295 7.8 295.1 C 51.5 336.2 104 348.4 140.2 351.4 C 179.6 354.6 208.8 348 209.1 348 L 209.2 348 C 218.5 346.1 224.9 343.8 229.9 340.6 C 239.3 334.5 235.1 321.3 235 321.1 L 234.9 320.9 C 234 317.7 232.3 315.5 229.6 314 C 222.2 309.9 209.1 312.3 202.6 314.4 C 202.3 314.5 202 314.6 201.7 314.6 C 131 329.3 50.3 307.9 8.5 293.8 C 8.5 293.7 8.4 293.7 8.3 293.7 Z" fill="white"/>
          </g>
        </g>
      </g>
    </g>
  </g>
</svg>
