<?xml version="1.0" encoding="UTF-8"?><svg id="Layer_2" xmlns="http://www.w3.org/2000/svg" viewBox="0 0 1010.98901 676.92308"><defs><style>.cls-1,.cls-2{opacity:.73;}.cls-1,.cls-2,.cls-3,.cls-4,.cls-5,.cls-6,.cls-7,.cls-8,.cls-9,.cls-10,.cls-11,.cls-12,.cls-13,.cls-14,.cls-15,.cls-16,.cls-17,.cls-18{stroke-width:0px;}.cls-1,.cls-7,.cls-14,.cls-17,.cls-18{fill:#fff;}.cls-2,.cls-6,.cls-8,.cls-11,.cls-13,.cls-15{fill:#5fafbb;}.cls-3{opacity:.75;}.cls-3,.cls-4{fill:#2a8cb1;}.cls-4{opacity:.7;}.cls-5{fill:none;}.cls-5,.cls-15,.cls-16,.cls-17{opacity:.6;}.cls-6,.cls-7{opacity:.8;}.cls-8,.cls-9{opacity:.85;}.cls-9,.cls-10,.cls-12{fill:#238bb4;}.cls-10,.cls-11{opacity:.84;}.cls-12{opacity:.92;}.cls-13,.cls-14{opacity:.9;}.cls-16{fill:#2f2e82;}</style></defs><g id="Layer_1-2"><path class="cls-17" d="m338.52852,574.3359c8.23464-12.38782,15.11673-25.52607,20.18879-39.39179-22.93367-1.50229-45.34356-4.63028-66.99098-9.4313,13.82385,17.53249,29.49088,33.88625,46.80219,48.8231Z"/><path class="cls-17" d="m446.52031,556.34712c-4.72729-7.30126-8.92417-14.87729-12.59064-22.70299-14.94434,1.51162-30.11411,2.3754-45.5292,2.3754-9.99826,0-19.87054-.43333-29.68315-1.07542-5.07206,13.86572-11.95415,27.00397-20.18879,39.39179,14.05591,12.13313,29.22567,23.29344,45.29051,33.45723,23.05301-15.08535,44.06394-32.36387,62.70127-51.44601Z"/><path class="cls-17" d="m228.28249,288.48335c-28.14496-10.44144-59.12099-16.26121-91.68826-16.26121-43.44733,0-83.9774,10.48305-118.79892,28.41013,39.9864,110.23992,143.7813,196.0177,273.93103,224.88053-42.51911-53.92042-67.40867-119.08293-67.40867-189.29254,0-16.21314,1.40559-32.13645,3.96483-47.73691Z"/><path class="cls-17" d="m228.28249,288.48335c-2.55924,15.60046-3.96483,31.52377-3.96483,47.73691,0,70.20961,24.88956,135.37212,67.40867,189.29254,21.64742,4.80103,44.05731,7.92901,66.99098,9.4313,7.05447-19.25002,10.90659-39.7297,10.90659-60.99928,0-83.22159-58.23919-154.63361-141.34141-185.46148Z"/><path class="cls-17" d="m228.28249,288.48335c-2.55924,15.60046-3.96483,31.52377-3.96483,47.73691,0,70.20961,24.88956,135.37212,67.40867,189.29254,21.64742,4.80103,44.05731,7.92901,66.99098,9.4313,7.05447-19.25002,10.90659-39.7297,10.90659-60.99928,0-83.22159-58.23919-154.63361-141.34141-185.46148Z"/><path class="cls-18" d="m532.8249,283.64717c3.50072,18.15737,5.42346,36.78036,5.42346,55.79936,0,70.00873-24.7437,135.00551-67.03739,188.83625,143.69511-27.0255,257.72696-122.83579,293.68223-245.64862-33.97286-16.74978-73.18353-26.44797-115.07278-26.44797-42.69813,0-82.58507,10.10712-116.99552,27.46097Z"/><path class="cls-18" d="m141.01653,675.47453c2.94378.05739,5.86768.19299,8.83135.19299,87.8693,0,168.88966-25.28717,233.97115-67.87438-16.06484-10.1638-31.23461-21.3241-45.29051-33.45723-39.53555,59.45537-112.95113,99.7626-197.51199,101.13863Z"/><path class="cls-14" d="m446.52031,556.34712c-4.72729-7.30126-8.92417-14.87729-12.59064-22.70299-14.94434,1.51162-30.11411,2.3754-45.5292,2.3754-9.99826,0-19.87054-.43333-29.68315-1.07542-5.07206,13.86572-11.95415,27.00397-20.18879,39.39179,14.05591,12.13313,29.22567,23.29344,45.29051,33.45723,23.05301-15.08535,44.06394-32.36387,62.70127-51.44601Z"/><path class="cls-18" d="m446.52031,556.34712c-4.72729-7.30126-8.92417-14.87729-12.59064-22.70299-14.94434,1.51162-30.11411,2.3754-45.5292,2.3754-9.99826,0-19.87054-.43333-29.68315-1.07542-5.07206,13.86572-11.95415,27.00397-20.18879,39.39179,14.05591,12.13313,29.22567,23.29344,45.29051,33.45723,23.05301-15.08535,44.06394-32.36387,62.70127-51.44601Z"/><path class="cls-17" d="m433.92967,533.64413c3.66647,7.8257,7.86335,15.40173,12.59064,22.70299,8.76505-8.9743,17.03947-18.32023,24.69066-28.06433-12.21936,2.29936-24.65751,4.08503-37.2813,5.36134Z"/><path class="cls-17" d="m433.92967,533.64413c3.66647,7.8257,7.86335,15.40173,12.59064,22.70299,8.76505-8.9743,17.03947-18.32023,24.69066-28.06433-12.21936,2.29936-24.65751,4.08503-37.2813,5.36134Z"/><path class="cls-7" d="m433.92967,533.64413c3.66647,7.8257,7.86335,15.40173,12.59064,22.70299,8.76505-8.9743,17.03947-18.32023,24.69066-28.06433-12.21936,2.29936-24.65751,4.08503-37.2813,5.36134Z"/><path class="cls-17" d="m17.79531,300.63227c34.82152-17.92708,75.35159-28.41013,118.79892-28.41013,32.56727,0,63.5433,5.81977,91.68826,16.26121,14.76533-89.88147,70.5381-168.3085,150.46449-220.60897C314.54729,27.25651,235.45631,3.22627,149.84789,3.22627c-28.43669,0-56.12417,2.7169-82.81713,7.73746C24.73707,64.79447,0,129.79053,0,199.79926c0,35.13314,6.2456,68.99859,17.79531,100.83301Z"/><path class="cls-18" d="m17.79531,300.63227c34.82152-17.92708,75.35159-28.41013,118.79892-28.41013,32.56727,0,63.5433,5.81977,91.68826,16.26121,14.76533-89.88147,70.5381-168.3085,150.46449-220.60897C314.54729,27.25651,235.45631,3.22627,149.84789,3.22627c-28.43669,0-56.12417,2.7169-82.81713,7.73746C24.73707,64.79447,0,129.79053,0,199.79926c0,35.13314,6.2456,68.99859,17.79531,100.83301Z"/><path class="cls-18" d="m532.8249,283.64717c-17.05936-88.36985-73.89296-165.03918-154.07792-215.77279-79.92639,52.30047-135.69916,130.72749-150.46449,220.60897,83.10223,30.82786,141.34141,102.23988,141.34141,185.46148,0,21.26957-3.85211,41.74926-10.90659,60.99928,9.81261.6421,19.6849,1.07542,29.68315,1.07542,15.41508,0,30.58485-.86378,45.5292-2.3754-10.96626-23.39962-17.13892-48.92928-17.13892-75.73524,0-74.44746,46.71599-139.30793,116.03415-174.26171Z"/><path class="cls-17" d="m538.24835,339.44654c0-19.019-1.92274-37.64199-5.42346-55.79936-69.31816,34.95379-116.03415,99.81426-116.03415,174.26171,0,26.80596,6.17266,52.33562,17.13892,75.73524,12.62379-1.2763,25.06194-3.06198,37.2813-5.36134,42.29369-53.83074,67.03739-118.82752,67.03739-188.83625Z"/><path class="cls-17" d="m538.24835,339.44654c0-19.019-1.92274-37.64199-5.42346-55.79936-69.31816,34.95379-116.03415,99.81426-116.03415,174.26171,0,26.80596,6.17266,52.33562,17.13892,75.73524,12.62379-1.2763,25.06194-3.06198,37.2813-5.36134,42.29369-53.83074,67.03739-118.82752,67.03739-188.83625Z"/><path class="cls-18" d="m538.24835,339.44654c0-19.019-1.92274-37.64199-5.42346-55.79936-69.31816,34.95379-116.03415,99.81426-116.03415,174.26171,0,26.80596,6.17266,52.33562,17.13892,75.73524,12.62379-1.2763,25.06194-3.06198,37.2813-5.36134,42.29369-53.83074,67.03739-118.82752,67.03739-188.83625Z"/><path class="cls-17" d="m338.52852,574.3359c8.23464-12.38782,15.11673-25.52607,20.18879-39.39179-22.93367-1.50229-45.34356-4.63028-66.99098-9.4313,13.82385,17.53249,29.49088,33.88625,46.80219,48.8231Z"/><path class="cls-1" d="m338.52852,574.3359c8.23464-12.38782,15.11673-25.52607,20.18879-39.39179-22.93367-1.50229-45.34356-4.63028-66.99098-9.4313,13.82385,17.53249,29.49088,33.88625,46.80219,48.8231Z"/><path class="cls-18" d="m228.28249,288.48335c-28.14496-10.44144-59.12099-16.26121-91.68826-16.26121-43.44733,0-83.9774,10.48305-118.79892,28.41013,39.9864,110.23992,143.7813,196.0177,273.93103,224.88053-42.51911-53.92042-67.40867-119.08293-67.40867-189.29254,0-16.21314,1.40559-32.13645,3.96483-47.73691Z"/><path class="cls-17" d="m228.28249,288.48335c-2.55924,15.60046-3.96483,31.52377-3.96483,47.73691,0,70.20961,24.88956,135.37212,67.40867,189.29254,21.64742,4.80103,44.05731,7.92901,66.99098,9.4313,7.05447-19.25002,10.90659-39.7297,10.90659-60.99928,0-83.22159-58.23919-154.63361-141.34141-185.46148Z"/><path class="cls-18" d="m228.28249,288.48335c-2.55924,15.60046-3.96483,31.52377-3.96483,47.73691,0,70.20961,24.88956,135.37212,67.40867,189.29254,21.64742,4.80103,44.05731,7.92901,66.99098,9.4313,7.05447-19.25002,10.90659-39.7297,10.90659-60.99928,0-83.22159-58.23919-154.63361-141.34141-185.46148Z"/><path class="cls-18" d="m719.26267,14.98928c42.51911,53.92042,67.40867,119.08293,67.40867,189.29254,0,28.58877-4.15047,56.33385-11.90774,82.8349,70.39224,34.71058,117.95689,100.12921,117.95689,175.27472,0,111.40861-104.33195,201.72269-233.02967,201.72269-87.37204,0-163.41316-41.689-203.30011-103.28446-18.63733,19.08214-39.64826,36.36066-62.70127,51.44601,64.19968,40.61788,143.29067,64.6474,228.89909,64.6474,214.50505,0,388.40047-150.53065,388.40047-336.22026,0-156.79522-123.99032-288.51564-291.72634-325.71354Z"/><path class="cls-18" d="m378.74698,67.87438c80.18496,50.73361,137.01856,127.40293,154.07792,215.77279,34.41045-17.35385,74.29739-27.46097,116.99552-27.46097,41.88925,0,81.09992,9.69819,115.07278,26.44797,7.75727-26.50106,11.90774-54.24613,11.90774-82.8349,0-70.20961-24.88956-135.37212-67.40867-189.29254-30.90973-6.8543-63.29799-10.50673-96.67413-10.50673-87.8693,0-168.89629,25.28717-233.97115,67.87438Z"/><path class="cls-15" d="m338.52852,574.3359c8.23464-12.38782,15.11673-25.52607,20.18879-39.39179-22.93367-1.50229-45.34356-4.63028-66.99098-9.4313,13.82385,17.53249,29.49088,33.88625,46.80219,48.8231Z"/><path class="cls-15" d="m446.52031,556.34712c-4.72729-7.30126-8.92417-14.87729-12.59064-22.70299-14.94434,1.51162-30.11411,2.3754-45.5292,2.3754-9.99826,0-19.87054-.43333-29.68315-1.07542-5.07206,13.86572-11.95415,27.00397-20.18879,39.39179,14.05591,12.13313,29.22567,23.29344,45.29051,33.45723,23.05301-15.08535,44.06394-32.36387,62.70127-51.44601Z"/><path class="cls-15" d="m228.28249,288.48335c-28.14496-10.44144-59.12099-16.26121-91.68826-16.26121-43.44733,0-83.9774,10.48305-118.79892,28.41013,39.9864,110.23992,143.7813,196.0177,273.93103,224.88053-42.51911-53.92042-67.40867-119.08293-67.40867-189.29254,0-16.21314,1.40559-32.13645,3.96483-47.73691Z"/><path class="cls-16" d="m228.28249,288.48335c-2.55924,15.60046-3.96483,31.52377-3.96483,47.73691,0,70.20961,24.88956,135.37212,67.40867,189.29254,21.64742,4.80103,44.05731,7.92901,66.99098,9.4313,7.05447-19.25002,10.90659-39.7297,10.90659-60.99928,0-83.22159-58.23919-154.63361-141.34141-185.46148Z"/><path class="cls-15" d="m228.28249,288.48335c-2.55924,15.60046-3.96483,31.52377-3.96483,47.73691,0,70.20961,24.88956,135.37212,67.40867,189.29254,21.64742,4.80103,44.05731,7.92901,66.99098,9.4313,7.05447-19.25002,10.90659-39.7297,10.90659-60.99928,0-83.22159-58.23919-154.63361-141.34141-185.46148Z"/><path class="cls-13" d="m532.8249,283.64717c3.50072,18.15737,5.42346,36.78036,5.42346,55.79936,0,70.00873-24.7437,135.00551-67.03739,188.83625,143.69511-27.0255,257.72696-122.83579,293.68223-245.64862-33.97286-16.74978-73.18353-26.44797-115.07278-26.44797-42.69813,0-82.58507,10.10712-116.99552,27.46097Z"/><path class="cls-3" d="m141.01653,675.47453c2.94378.05739,5.86768.19299,8.83135.19299,87.8693,0,168.88966-25.28717,233.97115-67.87438-16.06484-10.1638-31.23461-21.3241-45.29051-33.45723-39.53555,59.45537-112.95113,99.7626-197.51199,101.13863Z"/><path class="cls-13" d="m446.52031,556.34712c-4.72729-7.30126-8.92417-14.87729-12.59064-22.70299-14.94434,1.51162-30.11411,2.3754-45.5292,2.3754-9.99826,0-19.87054-.43333-29.68315-1.07542-5.07206,13.86572-11.95415,27.00397-20.18879,39.39179,14.05591,12.13313,29.22567,23.29344,45.29051,33.45723,23.05301-15.08535,44.06394-32.36387,62.70127-51.44601Z"/><path class="cls-5" d="m446.52031,556.34712c-4.72729-7.30126-8.92417-14.87729-12.59064-22.70299-14.94434,1.51162-30.11411,2.3754-45.5292,2.3754-9.99826,0-19.87054-.43333-29.68315-1.07542-5.07206,13.86572-11.95415,27.00397-20.18879,39.39179,14.05591,12.13313,29.22567,23.29344,45.29051,33.45723,23.05301-15.08535,44.06394-32.36387,62.70127-51.44601Z"/><path class="cls-16" d="m433.92967,533.64413c3.66647,7.8257,7.86335,15.40173,12.59064,22.70299,8.76505-8.9743,17.03947-18.32023,24.69066-28.06433-12.21936,2.29936-24.65751,4.08503-37.2813,5.36134Z"/><path class="cls-16" d="m433.92967,533.64413c3.66647,7.8257,7.86335,15.40173,12.59064,22.70299,8.76505-8.9743,17.03947-18.32023,24.69066-28.06433-12.21936,2.29936-24.65751,4.08503-37.2813,5.36134Z"/><path class="cls-6" d="m433.92967,533.64413c3.66647,7.8257,7.86335,15.40173,12.59064,22.70299,8.76505-8.9743,17.03947-18.32023,24.69066-28.06433-12.21936,2.29936-24.65751,4.08503-37.2813,5.36134Z"/><path class="cls-15" d="m17.79531,300.63227c34.82152-17.92708,75.35159-28.41013,118.79892-28.41013,32.56727,0,63.5433,5.81977,91.68826,16.26121,14.76533-89.88147,70.5381-168.3085,150.46449-220.60897C314.54729,27.25651,235.45631,3.22627,149.84789,3.22627c-28.43669,0-56.12417,2.7169-82.81713,7.73746C24.73707,64.79447,0,129.79053,0,199.79926c0,35.13314,6.2456,68.99859,17.79531,100.83301Z"/><path class="cls-10" d="m17.79531,300.63227c34.82152-17.92708,75.35159-28.41013,118.79892-28.41013,32.56727,0,63.5433,5.81977,91.68826,16.26121,14.76533-89.88147,70.5381-168.3085,150.46449-220.60897C314.54729,27.25651,235.45631,3.22627,149.84789,3.22627c-28.43669,0-56.12417,2.7169-82.81713,7.73746C24.73707,64.79447,0,129.79053,0,199.79926c0,35.13314,6.2456,68.99859,17.79531,100.83301Z"/><path class="cls-4" d="m532.8249,283.64717c-17.05936-88.36985-73.89296-165.03918-154.07792-215.77279-79.92639,52.30047-135.69916,130.72749-150.46449,220.60897,83.10223,30.82786,141.34141,102.23988,141.34141,185.46148,0,21.26957-3.85211,41.74926-10.90659,60.99928,9.81261.6421,19.6849,1.07542,29.68315,1.07542,15.41508,0,30.58485-.86378,45.5292-2.3754-10.96626-23.39962-17.13892-48.92928-17.13892-75.73524,0-74.44746,46.71599-139.30793,116.03415-174.26171Z"/><path class="cls-16" d="m538.24835,339.44654c0-19.019-1.92274-37.64199-5.42346-55.79936-69.31816,34.95379-116.03415,99.81426-116.03415,174.26171,0,26.80596,6.17266,52.33562,17.13892,75.73524,12.62379-1.2763,25.06194-3.06198,37.2813-5.36134,42.29369-53.83074,67.03739-118.82752,67.03739-188.83625Z"/><path class="cls-16" d="m538.24835,339.44654c0-19.019-1.92274-37.64199-5.42346-55.79936-69.31816,34.95379-116.03415,99.81426-116.03415,174.26171,0,26.80596,6.17266,52.33562,17.13892,75.73524,12.62379-1.2763,25.06194-3.06198,37.2813-5.36134,42.29369-53.83074,67.03739-118.82752,67.03739-188.83625Z"/><path class="cls-11" d="m538.24835,339.44654c0-19.019-1.92274-37.64199-5.42346-55.79936-69.31816,34.95379-116.03415,99.81426-116.03415,174.26171,0,26.80596,6.17266,52.33562,17.13892,75.73524,12.62379-1.2763,25.06194-3.06198,37.2813-5.36134,42.29369-53.83074,67.03739-118.82752,67.03739-188.83625Z"/><path class="cls-16" d="m338.52852,574.3359c8.23464-12.38782,15.11673-25.52607,20.18879-39.39179-22.93367-1.50229-45.34356-4.63028-66.99098-9.4313,13.82385,17.53249,29.49088,33.88625,46.80219,48.8231Z"/><path class="cls-2" d="m338.52852,574.3359c8.23464-12.38782,15.11673-25.52607,20.18879-39.39179-22.93367-1.50229-45.34356-4.63028-66.99098-9.4313,13.82385,17.53249,29.49088,33.88625,46.80219,48.8231Z"/><path class="cls-13" d="m228.28249,288.48335c-28.14496-10.44144-59.12099-16.26121-91.68826-16.26121-43.44733,0-83.9774,10.48305-118.79892,28.41013,39.9864,110.23992,143.7813,196.0177,273.93103,224.88053-42.51911-53.92042-67.40867-119.08293-67.40867-189.29254,0-16.21314,1.40559-32.13645,3.96483-47.73691Z"/><path class="cls-16" d="m228.28249,288.48335c-2.55924,15.60046-3.96483,31.52377-3.96483,47.73691,0,70.20961,24.88956,135.37212,67.40867,189.29254,21.64742,4.80103,44.05731,7.92901,66.99098,9.4313,7.05447-19.25002,10.90659-39.7297,10.90659-60.99928,0-83.22159-58.23919-154.63361-141.34141-185.46148Z"/><path class="cls-8" d="m228.28249,288.48335c-2.55924,15.60046-3.96483,31.52377-3.96483,47.73691,0,70.20961,24.88956,135.37212,67.40867,189.29254,21.64742,4.80103,44.05731,7.92901,66.99098,9.4313,7.05447-19.25002,10.90659-39.7297,10.90659-60.99928,0-83.22159-58.23919-154.63361-141.34141-185.46148Z"/><path class="cls-9" d="m719.26267,14.98928c42.51911,53.92042,67.40867,119.08293,67.40867,189.29254,0,28.58877-4.15047,56.33385-11.90774,82.8349,70.39224,34.71058,117.95689,100.12921,117.95689,175.27472,0,111.40861-104.33195,201.72269-233.02967,201.72269-87.37204,0-163.41316-41.689-203.30011-103.28446-18.63733,19.08214-39.64826,36.36066-62.70127,51.44601,64.19968,40.61788,143.29067,64.6474,228.89909,64.6474,214.50505,0,388.40047-150.53065,388.40047-336.22026,0-156.79522-123.99032-288.51564-291.72634-325.71354Z"/><path class="cls-12" d="m378.74698,67.87438c80.18496,50.73361,137.01856,127.40293,154.07792,215.77279,34.41045-17.35385,74.29739-27.46097,116.99552-27.46097,41.88925,0,81.09992,9.69819,115.07278,26.44797,7.75727-26.50106,11.90774-54.24613,11.90774-82.8349,0-70.20961-24.88956-135.37212-67.40867-189.29254-30.90973-6.8543-63.29799-10.50673-96.67413-10.50673-87.8693,0-168.89629,25.28717-233.97115,67.87438Z"/></g></svg>